solid hexCoupler
facet normal -1.0 -6.018519016492972e-12 -1.269817584423086e-15
  outer loop
    vertex -4.0877360025226495e-11 6.000000000000003 2.573653604165193
    vertex -1.3786043667936737e-11 1.4999999999999956 5.1717298155185025
    vertex -3.184160071741566e-11 4.499999999999996 5.171729815518508
  endloop
endfacet
facet normal -1.0 -6.018519016492972e-12 -1.269817584423086e-15
  outer loop
    vertex -1.3786043667936737e-11 1.4999999999999956 5.1717298155185025
    vertex -4.0877360025226495e-11 6.000000000000003 2.573653604165193
    vertex -4.7662459262686385e-12 -1.762479051592436e-15 2.573653604165185
  endloop
endfacet
facet normal 5.2115554526504445e-12 -0.8660254037844395 0.4999999999999989
  outer loop
    vertex 15.99999999999524 9.629551045442497e-11 2.573653604165205
    vertex -1.3786043667936737e-11 1.4999999999999956 5.1717298155185025
    vertex -4.7662459262686385e-12 -1.762479051592436e-15 2.573653604165185
  endloop
endfacet
facet normal 5.2115554526504445e-12 -0.8660254037844395 0.4999999999999989
  outer loop
    vertex -1.3786043667936737e-11 1.4999999999999956 5.1717298155185025
    vertex 15.99999999999524 9.629551045442497e-11 2.573653604165205
    vertex 15.999999999986208 1.5000000000962932 5.171729815518523
  endloop
endfacet
facet normal 1.0 6.018519016492972e-12 1.269817584423086e-15
  outer loop
    vertex 15.999999999986208 1.5000000000962932 5.171729815518523
    vertex 15.999999999959131 6.000000000096297 2.5736536041652136
    vertex 15.999999999968159 4.500000000096292 5.171729815518527
  endloop
endfacet
facet normal 1.0 6.018519016492972e-12 1.269817584423086e-15
  outer loop
    vertex 15.999999999959131 6.000000000096297 2.5736536041652136
    vertex 15.999999999986208 1.5000000000962932 5.171729815518523
    vertex 15.99999999999524 9.629551045442497e-11 2.573653604165205
  endloop
endfacet
facet normal -1.2698175844140063e-15 -1.6653345369377344e-15 1.0
  outer loop
    vertex 15.999999999986208 1.5000000000962932 5.171729815518523
    vertex -3.184160071741566e-11 4.499999999999996 5.171729815518508
    vertex -1.3786043667936737e-11 1.4999999999999956 5.1717298155185025
  endloop
endfacet
facet normal -1.2698175844140063e-15 -1.6653345369377344e-15 1.0
  outer loop
    vertex -3.184160071741566e-11 4.499999999999996 5.171729815518508
    vertex 15.999999999986208 1.5000000000962932 5.171729815518523
    vertex 15.999999999968159 4.500000000096292 5.171729815518527
  endloop
endfacet
facet normal 1.2698175844135324e-15 1.6653345369377344e-15 -1.0
  outer loop
    vertex -4.0877360025226495e-11 6.000000000000003 2.573653604165193
    vertex 15.99999999999524 9.629551045442497e-11 2.573653604165205
    vertex -4.7662459262686385e-12 -1.762479051592436e-15 2.573653604165185
  endloop
endfacet
facet normal 1.2698175844135324e-15 1.6653345369377344e-15 -1.0
  outer loop
    vertex 15.99999999999524 9.629551045442497e-11 2.573653604165205
    vertex -4.0877360025226495e-11 6.000000000000003 2.573653604165193
    vertex 15.999999999959131 6.000000000096297 2.5736536041652136
  endloop
endfacet
facet normal -5.212825270234856e-12 0.8660254037844378 0.5000000000000016
  outer loop
    vertex 15.999999999959131 6.000000000096297 2.5736536041652136
    vertex -3.184160071741566e-11 4.499999999999996 5.171729815518508
    vertex 15.999999999968159 4.500000000096292 5.171729815518527
  endloop
endfacet
facet normal -5.212825270234856e-12 0.8660254037844378 0.5000000000000016
  outer loop
    vertex -3.184160071741566e-11 4.499999999999996 5.171729815518508
    vertex 15.999999999959131 6.000000000096297 2.5736536041652136
    vertex -4.0877360025226495e-11 6.000000000000003 2.573653604165193
  endloop
endfacet
facet normal -5.2128252702348554e-12 0.8660254037844378 0.5000000000000017
  outer loop
    vertex 16.599999999954566 6.750000000099975 2.5736536041651097
    vertex 15.99999999996359 5.250000000096362 5.17172981551842
    vertex 16.59999999996359 5.250000000099973 5.17172981551842
  endloop
endfacet
facet normal -5.2128252702348554e-12 0.8660254037844378 0.5000000000000017
  outer loop
    vertex 15.99999999996359 5.250000000096362 5.17172981551842
    vertex 16.599999999954566 6.750000000099975 2.5736536041651097
    vertex 15.999999999954566 6.750000000096366 2.5736536041651092
  endloop
endfacet
facet normal -1.2698175844154267e-15 -1.27675647831893e-15 1.0
  outer loop
    vertex 16.59999999996359 5.250000000099973 5.17172981551842
    vertex 15.999999999990674 0.7500000000963588 5.171729815518414
    vertex 16.599999999990672 0.7500000000999699 5.171729815518415
  endloop
endfacet
facet normal -1.2698175844154267e-15 -1.27675647831893e-15 1.0
  outer loop
    vertex 15.999999999990674 0.7500000000963588 5.171729815518414
    vertex 16.59999999996359 5.250000000099973 5.17172981551842
    vertex 15.99999999996359 5.250000000096362 5.17172981551842
  endloop
endfacet
facet normal -1.0 -6.018519016492973e-12 -1.269817584423198e-15
  outer loop
    vertex 15.999999999954566 6.750000000096366 2.5736536041651092
    vertex 15.999999999990674 0.7500000000963588 5.171729815518414
    vertex 15.99999999996359 5.250000000096362 5.17172981551842
  endloop
endfacet
facet normal -1.0 -6.018519016492973e-12 -1.269817584423198e-15
  outer loop
    vertex 15.999999999990674 0.7500000000963588 5.171729815518414
    vertex 15.999999999954566 6.750000000096366 2.5736536041651092
    vertex 15.999999999999703 -0.7499999999036351 2.573653604165093
  endloop
endfacet
facet normal 5.211555452650445e-12 -0.8660254037844399 0.49999999999999784
  outer loop
    vertex 16.599999999999703 -0.7499999999000241 2.5736536041650937
    vertex 15.999999999990674 0.7500000000963588 5.171729815518414
    vertex 15.999999999999703 -0.7499999999036351 2.573653604165093
  endloop
endfacet
facet normal 5.211555452650445e-12 -0.8660254037844399 0.49999999999999784
  outer loop
    vertex 15.999999999990674 0.7500000000963588 5.171729815518414
    vertex 16.599999999999703 -0.7499999999000241 2.5736536041650937
    vertex 16.599999999990672 0.7500000000999699 5.171729815518415
  endloop
endfacet
facet normal 1.26981758441058e-15 2.0539125955565396e-15 -1.0
  outer loop
    vertex 15.999999999954566 6.750000000096366 2.5736536041651092
    vertex 16.599999999999703 -0.7499999999000241 2.5736536041650937
    vertex 15.999999999999703 -0.7499999999036351 2.573653604165093
  endloop
endfacet
facet normal 1.26981758441058e-15 2.0539125955565396e-15 -1.0
  outer loop
    vertex 16.599999999999703 -0.7499999999000241 2.5736536041650937
    vertex 15.999999999954566 6.750000000096366 2.5736536041651092
    vertex 16.599999999954566 6.750000000099975 2.5736536041651097
  endloop
endfacet
facet normal 1.0 6.018519016492973e-12 1.269817584423198e-15
  outer loop
    vertex 16.599999999990672 0.7500000000999699 5.171729815518415
    vertex 16.599999999954566 6.750000000099975 2.5736536041651097
    vertex 16.59999999996359 5.250000000099973 5.17172981551842
  endloop
endfacet
facet normal 1.0 6.018519016492973e-12 1.269817584423198e-15
  outer loop
    vertex 16.599999999954566 6.750000000099975 2.5736536041651097
    vertex 16.599999999990672 0.7500000000999699 5.171729815518415
    vertex 16.599999999999703 -0.7499999999000241 2.5736536041650937
  endloop
endfacet
facet normal -1.0 -6.018519016492975e-12 -1.2698175844235257e-15
  outer loop
    vertex -4.744057729574605e-12 2.9609648066752924e-14 2.57365360416519
    vertex -3.181281435490983e-11 4.499999999984396 -0.02442260721520986
    vertex -1.3757257305430915e-11 1.4999999999843945 -0.024422607197154847
  endloop
endfacet
facet normal -1.0 -6.018519016492975e-12 -1.2698175844235257e-15
  outer loop
    vertex -3.181281435490983e-11 4.499999999984396 -0.02442260721520986
    vertex -4.744057729574605e-12 2.9609648066752924e-14 2.57365360416519
    vertex -4.085517182853244e-11 6.000000000000033 2.5736536041290776
  endloop
endfacet
facet normal -5.211555452632322e-12 0.8660254037814294 -0.5000000000052124
  outer loop
    vertex 15.99999999995915 6.000000000096328 2.573653604129099
    vertex -3.181281435490983e-11 4.499999999984396 -0.02442260721520986
    vertex -4.085517182853244e-11 6.000000000000033 2.5736536041290776
  endloop
endfacet
facet normal -5.211555452632322e-12 0.8660254037814294 -0.5000000000052124
  outer loop
    vertex -3.181281435490983e-11 4.499999999984396 -0.02442260721520986
    vertex 15.99999999995915 6.000000000096328 2.573653604129099
    vertex 15.999999999968184 4.500000000080691 -0.024422607215188886
  endloop
endfacet
facet normal 1.0 6.018519016492975e-12 1.2698175844235257e-15
  outer loop
    vertex 15.999999999968184 4.500000000080691 -0.024422607215188886
    vertex 15.999999999995268 9.6326530085733e-11 2.57365360416521
    vertex 15.99999999998624 1.500000000080691 -0.024422607197133874
  endloop
endfacet
facet normal 1.0 6.018519016492975e-12 1.2698175844235257e-15
  outer loop
    vertex 15.999999999995268 9.6326530085733e-11 2.57365360416521
    vertex 15.999999999968184 4.500000000080691 -0.024422607215188886
    vertex 15.99999999995915 6.000000000096328 2.573653604129099
  endloop
endfacet
facet normal 1.2698176206435604e-15 -6.0183524830392774e-12 -1.0
  outer loop
    vertex 15.999999999968184 4.500000000080691 -0.024422607215188886
    vertex -1.3757257305430915e-11 1.4999999999843945 -0.024422607197154847
    vertex -3.181281435490983e-11 4.499999999984396 -0.02442260721520986
  endloop
endfacet
facet normal 1.2698176206435604e-15 -6.0183524830392774e-12 -1.0
  outer loop
    vertex -1.3757257305430915e-11 1.4999999999843945 -0.024422607197154847
    vertex 15.999999999968184 4.500000000080691 -0.024422607215188886
    vertex 15.99999999998624 1.500000000080691 -0.024422607197133874
  endloop
endfacet
facet normal -1.2698176206440344e-15 6.0183524830392774e-12 1.0
  outer loop
    vertex -4.744057729574605e-12 2.9609648066752924e-14 2.57365360416519
    vertex 15.99999999995915 6.000000000096328 2.573653604129099
    vertex -4.085517182853244e-11 6.000000000000033 2.5736536041290776
  endloop
endfacet
facet normal -1.2698176206440344e-15 6.0183524830392774e-12 1.0
  outer loop
    vertex 15.99999999995915 6.000000000096328 2.573653604129099
    vertex -4.744057729574605e-12 2.9609648066752924e-14 2.57365360416519
    vertex 15.999999999995268 9.6326530085733e-11 2.57365360416521
  endloop
endfacet
facet normal 5.212825270252969e-12 -0.8660254037874477 -0.499999999994788
  outer loop
    vertex 15.999999999995268 9.6326530085733e-11 2.57365360416521
    vertex -1.3757257305430915e-11 1.4999999999843945 -0.024422607197154847
    vertex 15.99999999998624 1.500000000080691 -0.024422607197133874
  endloop
endfacet
facet normal 5.212825270252969e-12 -0.8660254037874477 -0.499999999994788
  outer loop
    vertex -1.3757257305430915e-11 1.4999999999843945 -0.024422607197154847
    vertex 15.999999999995268 9.6326530085733e-11 2.57365360416521
    vertex -4.744057729574605e-12 2.9609648066752924e-14 2.57365360416519
  endloop
endfacet
facet normal 5.212825180558641e-12 -0.8660253888789442 -0.500000025817073
  outer loop
    vertex 16.599999999999714 -0.7499999999000633 2.5736536041651976
    vertex 15.99999999999069 0.7500000775475422 -0.024422562471632867
    vertex 16.59999999999069 0.750000077551153 -0.02442256247163216
  endloop
endfacet
facet normal 5.212825180558641e-12 -0.8660253888789442 -0.500000025817073
  outer loop
    vertex 15.99999999999069 0.7500000775475422 -0.024422562471632867
    vertex 16.599999999999714 -0.7499999999000633 2.5736536041651976
    vertex 15.999999999999714 -0.7499999999036742 2.573653604165197
  endloop
endfacet
facet normal 1.2696381664267104e-15 2.981098773391366e-08 -0.9999999999999997
  outer loop
    vertex 16.59999999999069 0.750000077551153 -0.02442256247163216
    vertex 15.999999999963608 5.2500000775475435 -0.024422428322187772
    vertex 16.599999999963607 5.250000077551155 -0.024422428322187065
  endloop
endfacet
facet normal 1.2696381664267104e-15 2.981098773391366e-08 -0.9999999999999997
  outer loop
    vertex 15.999999999963608 5.2500000775475435 -0.024422428322187772
    vertex 16.59999999999069 0.750000077551153 -0.02442256247163216
    vertex 15.99999999999069 0.7500000775475422 -0.024422562471632867
  endloop
endfacet
facet normal -1.0 -6.018519016492973e-12 -1.269817584423198e-15
  outer loop
    vertex 15.999999999999714 -0.7499999999036742 2.573653604165197
    vertex 15.999999999963608 5.2500000775475435 -0.024422428322187772
    vertex 15.99999999999069 0.7500000775475422 -0.024422562471632867
  endloop
endfacet
facet normal -1.0 -6.018519016492973e-12 -1.269817584423198e-15
  outer loop
    vertex 15.999999999963608 5.2500000775475435 -0.024422428322187772
    vertex 15.999999999999714 -0.7499999999036742 2.573653604165197
    vertex 15.999999999954579 6.750000000096322 2.5736538277476115
  endloop
endfacet
facet normal -5.21155554239222e-12 0.8660254186899328 -0.499999974182926
  outer loop
    vertex 16.599999999954576 6.7500000000999325 2.573653827747612
    vertex 15.999999999963608 5.2500000775475435 -0.024422428322187772
    vertex 15.999999999954579 6.750000000096322 2.5736538277476115
  endloop
endfacet
facet normal -5.21155554239222e-12 0.8660254186899328 -0.499999974182926
  outer loop
    vertex 15.999999999963608 5.2500000775475435 -0.024422428322187772
    vertex 16.599999999954576 6.7500000000999325 2.573653827747612
    vertex 16.599999999963607 5.250000077551155 -0.024422428322187065
  endloop
endfacet
facet normal -1.2696381664222675e-15 -2.981098851106978e-08 0.9999999999999996
  outer loop
    vertex 15.999999999999714 -0.7499999999036742 2.573653604165197
    vertex 16.599999999954576 6.7500000000999325 2.573653827747612
    vertex 15.999999999954579 6.750000000096322 2.5736538277476115
  endloop
endfacet
facet normal -1.2696381664222675e-15 -2.981098851106978e-08 0.9999999999999996
  outer loop
    vertex 16.599999999954576 6.7500000000999325 2.573653827747612
    vertex 15.999999999999714 -0.7499999999036742 2.573653604165197
    vertex 16.599999999999714 -0.7499999999000633 2.5736536041651976
  endloop
endfacet
facet normal 1.0 6.018519016492973e-12 1.269817584423198e-15
  outer loop
    vertex 16.599999999963607 5.250000077551155 -0.024422428322187065
    vertex 16.599999999999714 -0.7499999999000633 2.5736536041651976
    vertex 16.59999999999069 0.750000077551153 -0.02442256247163216
  endloop
endfacet
facet normal 1.0 6.018519016492973e-12 1.269817584423198e-15
  outer loop
    vertex 16.599999999999714 -0.7499999999000633 2.5736536041651976
    vertex 16.599999999963607 5.250000077551155 -0.024422428322187065
    vertex 16.599999999954576 6.7500000000999325 2.573653827747612
  endloop
endfacet
facet normal 1.0 6.018519016492972e-12 1.2698175844217453e-15
  outer loop
    vertex 33.19999999999527 1.998968490735109e-10 2.573653604165264
    vertex 33.19999999996817 4.500000000184258 5.171729815545673
    vertex 33.199999999986225 1.5000000001842577 5.171729815527612
  endloop
endfacet
facet normal 1.0 6.018519016492972e-12 1.2698175844217453e-15
  outer loop
    vertex 33.19999999996817 4.500000000184258 5.171729815545673
    vertex 33.19999999999527 1.998968490735109e-10 2.573653604165264
    vertex 33.199999999959154 6.0000000001999005 2.5736536042013873
  endloop
endfacet
facet normal -5.212825270216751e-12 0.8660254037814286 0.5000000000052139
  outer loop
    vertex 17.199999999959154 6.000000000103603 2.573653604201366
    vertex 33.19999999996817 4.500000000184258 5.171729815545673
    vertex 33.199999999959154 6.0000000001999005 2.5736536042013873
  endloop
endfacet
facet normal -5.212825270216751e-12 0.8660254037814286 0.5000000000052139
  outer loop
    vertex 33.19999999996817 4.500000000184258 5.171729815545673
    vertex 17.199999999959154 6.000000000103603 2.573653604201366
    vertex 17.199999999968174 4.500000000087962 5.1717298155456515
  endloop
endfacet
facet normal -1.0 -6.018519016492972e-12 -1.2698175844217453e-15
  outer loop
    vertex 17.199999999968174 4.500000000087962 5.1717298155456515
    vertex 17.199999999995256 1.0360204361070657e-10 2.573653604165244
    vertex 17.199999999986225 1.5000000000879619 5.171729815527591
  endloop
endfacet
facet normal -1.0 -6.018519016492972e-12 -1.2698175844217453e-15
  outer loop
    vertex 17.199999999995256 1.0360204361070657e-10 2.573653604165244
    vertex 17.199999999968174 4.500000000087962 5.1717298155456515
    vertex 17.199999999959154 6.000000000103603 2.573653604201366
  endloop
endfacet
facet normal -1.2698175481881126e-15 -6.020184351029909e-12 1.0
  outer loop
    vertex 17.199999999968174 4.500000000087962 5.1717298155456515
    vertex 33.199999999986225 1.5000000001842577 5.171729815527612
    vertex 33.19999999996817 4.500000000184258 5.171729815545673
  endloop
endfacet
facet normal -1.2698175481881126e-15 -6.020184351029909e-12 1.0
  outer loop
    vertex 33.199999999986225 1.5000000001842577 5.171729815527612
    vertex 17.199999999968174 4.500000000087962 5.1717298155456515
    vertex 17.199999999986225 1.5000000000879619 5.171729815527591
  endloop
endfacet
facet normal 1.2698175481885865e-15 6.020184351029909e-12 -1.0
  outer loop
    vertex 33.19999999999527 1.998968490735109e-10 2.573653604165264
    vertex 17.199999999959154 6.000000000103603 2.573653604201366
    vertex 33.199999999959154 6.0000000001999005 2.5736536042013873
  endloop
endfacet
facet normal 1.2698175481885865e-15 6.020184351029909e-12 -1.0
  outer loop
    vertex 17.199999999959154 6.000000000103603 2.573653604201366
    vertex 33.19999999999527 1.998968490735109e-10 2.573653604165264
    vertex 17.199999999995256 1.0360204361070657e-10 2.573653604165244
  endloop
endfacet
facet normal 5.211555452668562e-12 -0.8660254037874487 0.49999999999478645
  outer loop
    vertex 17.199999999995256 1.0360204361070657e-10 2.573653604165244
    vertex 33.199999999986225 1.5000000001842577 5.171729815527612
    vertex 17.199999999986225 1.5000000000879619 5.171729815527591
  endloop
endfacet
facet normal 5.211555452668562e-12 -0.8660254037874487 0.49999999999478645
  outer loop
    vertex 33.199999999986225 1.5000000001842577 5.171729815527612
    vertex 17.199999999995256 1.0360204361070657e-10 2.573653604165244
    vertex 33.19999999999527 1.998968490735109e-10 2.573653604165264
  endloop
endfacet
facet normal 5.2115553629086545e-12 -0.8660253888789442 0.5000000258170727
  outer loop
    vertex 16.599999999999746 -0.7499999998999709 2.5736536041651954
    vertex 17.19999999999071 0.7500000775548564 5.171729770802026
    vertex 16.59999999999071 0.7500000775512454 5.171729770802026
  endloop
endfacet
facet normal 5.2115553629086545e-12 -0.8660253888789442 0.5000000258170727
  outer loop
    vertex 17.19999999999071 0.7500000775548564 5.171729770802026
    vertex 16.599999999999746 -0.7499999998999709 2.5736536041651954
    vertex 17.199999999999743 -0.7499999998963599 2.573653604165196
  endloop
endfacet
facet normal -1.269997002415856e-15 2.981098745635791e-08 0.9999999999999997
  outer loop
    vertex 16.59999999999071 0.7500000775512454 5.171729770802026
    vertex 17.199999999963627 5.250000077554858 5.171729636652582
    vertex 16.59999999996363 5.250000077551247 5.171729636652581
  endloop
endfacet
facet normal -1.269997002415856e-15 2.981098745635791e-08 0.9999999999999997
  outer loop
    vertex 17.199999999963627 5.250000077554858 5.171729636652582
    vertex 16.59999999999071 0.7500000775512454 5.171729770802026
    vertex 17.19999999999071 0.7500000775548564 5.171729770802026
  endloop
endfacet
facet normal 1.0 6.018519016492974e-12 1.2698175844212047e-15
  outer loop
    vertex 17.199999999999743 -0.7499999998963599 2.573653604165196
    vertex 17.199999999963627 5.250000077554858 5.171729636652582
    vertex 17.19999999999071 0.7500000775548564 5.171729770802026
  endloop
endfacet
facet normal 1.0 6.018519016492974e-12 1.2698175844212047e-15
  outer loop
    vertex 17.199999999963627 5.250000077554858 5.171729636652582
    vertex 17.199999999999743 -0.7499999998963599 2.573653604165196
    vertex 17.199999999954603 6.750000000103637 2.5736533805827837
  endloop
endfacet
facet normal -5.212825359911076e-12 0.8660254186899327 0.4999999741829263
  outer loop
    vertex 16.599999999954605 6.750000000100026 2.573653380582783
    vertex 17.199999999963627 5.250000077554858 5.171729636652582
    vertex 17.199999999954603 6.750000000103637 2.5736533805827837
  endloop
endfacet
facet normal -5.212825359911076e-12 0.8660254186899327 0.4999999741829263
  outer loop
    vertex 17.199999999963627 5.250000077554858 5.171729636652582
    vertex 16.599999999954605 6.750000000100026 2.573653380582783
    vertex 16.59999999996363 5.250000077551247 5.171729636652581
  endloop
endfacet
facet normal 1.2699970024207028e-15 -2.9810988233514024e-08 -0.9999999999999996
  outer loop
    vertex 17.199999999999743 -0.7499999998963599 2.573653604165196
    vertex 16.599999999954605 6.750000000100026 2.573653380582783
    vertex 17.199999999954603 6.750000000103637 2.5736533805827837
  endloop
endfacet
facet normal 1.2699970024207028e-15 -2.9810988233514024e-08 -0.9999999999999996
  outer loop
    vertex 16.599999999954605 6.750000000100026 2.573653380582783
    vertex 17.199999999999743 -0.7499999998963599 2.573653604165196
    vertex 16.599999999999746 -0.7499999998999709 2.5736536041651954
  endloop
endfacet
facet normal -1.0 -6.018519016492974e-12 -1.2698175844212047e-15
  outer loop
    vertex 16.59999999996363 5.250000077551247 5.171729636652581
    vertex 16.599999999999746 -0.7499999998999709 2.5736536041651954
    vertex 16.59999999999071 0.7500000775512454 5.171729770802026
  endloop
endfacet
facet normal -1.0 -6.018519016492974e-12 -1.2698175844212047e-15
  outer loop
    vertex 16.599999999999746 -0.7499999998999709 2.5736536041651954
    vertex 16.59999999996363 5.250000077551247 5.171729636652581
    vertex 16.599999999954605 6.750000000100026 2.573653380582783
  endloop
endfacet
facet normal 1.0 6.0185190164929744e-12 1.2698175844210945e-15
  outer loop
    vertex 33.19999999995906 6.000000000199804 2.5736536041652722
    vertex 33.19999999998614 1.500000000199801 -0.024422607188044947
    vertex 33.199999999968085 4.500000000199802 -0.024422607188044947
  endloop
endfacet
facet normal 1.0 6.0185190164929744e-12 1.2698175844210945e-15
  outer loop
    vertex 33.19999999998614 1.500000000199801 -0.024422607188044947
    vertex 33.19999999995906 6.000000000199804 2.5736536041652722
    vertex 33.19999999999517 1.9979991272567332e-10 2.57365360416527
  endloop
endfacet
facet normal 5.21282527023486e-12 -0.8660254037844387 -0.5000000000000003
  outer loop
    vertex 17.199999999995168 1.0350475476705867e-10 2.57365360416525
    vertex 33.19999999998614 1.500000000199801 -0.024422607188044947
    vertex 33.19999999999517 1.9979991272567332e-10 2.57365360416527
  endloop
endfacet
facet normal 5.21282527023486e-12 -0.8660254037844387 -0.5000000000000003
  outer loop
    vertex 33.19999999998614 1.500000000199801 -0.024422607188044947
    vertex 17.199999999995168 1.0350475476705867e-10 2.57365360416525
    vertex 17.199999999986144 1.5000000001035059 -0.024422607188064507
  endloop
endfacet
facet normal -1.0 -6.0185190164929744e-12 -1.2698175844210945e-15
  outer loop
    vertex 17.199999999986144 1.5000000001035059 -0.024422607188064507
    vertex 17.199999999959054 6.0000000001035065 2.573653604165251
    vertex 17.19999999996808 4.500000000103506 -0.024422607188064507
  endloop
endfacet
facet normal -1.0 -6.0185190164929744e-12 -1.2698175844210945e-15
  outer loop
    vertex 17.199999999959054 6.0000000001035065 2.573653604165251
    vertex 17.199999999986144 1.5000000001035059 -0.024422607188064507
    vertex 17.199999999995168 1.0350475476705867e-10 2.57365360416525
  endloop
endfacet
facet normal 1.2698175844236999e-15 -1.6653345369377343e-16 -1.0
  outer loop
    vertex 17.199999999986144 1.5000000001035059 -0.024422607188064507
    vertex 33.199999999968085 4.500000000199802 -0.024422607188044947
    vertex 33.19999999998614 1.500000000199801 -0.024422607188044947
  endloop
endfacet
facet normal 1.2698175844236999e-15 -1.6653345369377343e-16 -1.0
  outer loop
    vertex 33.199999999968085 4.500000000199802 -0.024422607188044947
    vertex 17.199999999986144 1.5000000001035059 -0.024422607188064507
    vertex 17.19999999996808 4.500000000103506 -0.024422607188064507
  endloop
endfacet
facet normal -1.269817584423226e-15 1.6653345369377343e-16 1.0
  outer loop
    vertex 33.19999999995906 6.000000000199804 2.5736536041652722
    vertex 17.199999999995168 1.0350475476705867e-10 2.57365360416525
    vertex 33.19999999999517 1.9979991272567332e-10 2.57365360416527
  endloop
endfacet
facet normal -1.269817584423226e-15 1.6653345369377343e-16 1.0
  outer loop
    vertex 17.199999999995168 1.0350475476705867e-10 2.57365360416525
    vertex 33.19999999995906 6.000000000199804 2.5736536041652722
    vertex 17.199999999959054 6.0000000001035065 2.573653604165251
  endloop
endfacet
facet normal -5.21155545265044e-12 0.8660254037844386 -0.5
  outer loop
    vertex 17.199999999959054 6.0000000001035065 2.573653604165251
    vertex 33.199999999968085 4.500000000199802 -0.024422607188044947
    vertex 17.19999999996808 4.500000000103506 -0.024422607188064507
  endloop
endfacet
facet normal -5.21155545265044e-12 0.8660254037844386 -0.5
  outer loop
    vertex 33.199999999968085 4.500000000199802 -0.024422607188044947
    vertex 17.199999999959054 6.0000000001035065 2.573653604165251
    vertex 33.19999999995906 6.000000000199804 2.5736536041652722
  endloop
endfacet
facet normal -5.211555452650439e-12 0.8660254037844386 -0.5000000000000003
  outer loop
    vertex 16.5999999999546 6.750000000099951 2.5736536041652056
    vertex 17.199999999963634 5.250000000103563 -0.024422607188106103
    vertex 16.599999999963636 5.250000000099953 -0.024422607188106807
  endloop
endfacet
facet normal -5.211555452650439e-12 0.8660254037844386 -0.5000000000000003
  outer loop
    vertex 17.199999999963634 5.250000000103563 -0.024422607188106103
    vertex 16.5999999999546 6.750000000099951 2.5736536041652056
    vertex 17.1999999999546 6.7500000001035625 2.5736536041652065
  endloop
endfacet
facet normal 1.2698175844194657e-15 2.220446049250313e-16 -1.0
  outer loop
    vertex 16.599999999963636 5.250000000099953 -0.024422607188106807
    vertex 17.199999999990716 0.7500000001035602 -0.02442260718810716
    vertex 16.599999999990718 0.7500000000999489 -0.024422607188107865
  endloop
endfacet
facet normal 1.2698175844194657e-15 2.220446049250313e-16 -1.0
  outer loop
    vertex 17.199999999990716 0.7500000001035602 -0.02442260718810716
    vertex 16.599999999963636 5.250000000099953 -0.024422607188106807
    vertex 17.199999999963634 5.250000000103563 -0.024422607188106103
  endloop
endfacet
facet normal 1.0 6.018519016492974e-12 1.2698175844212047e-15
  outer loop
    vertex 17.1999999999546 6.7500000001035625 2.5736536041652065
    vertex 17.199999999990716 0.7500000001035602 -0.02442260718810716
    vertex 17.199999999963634 5.250000000103563 -0.024422607188106103
  endloop
endfacet
facet normal 1.0 6.018519016492974e-12 1.2698175844212047e-15
  outer loop
    vertex 17.199999999990716 0.7500000001035602 -0.02442260718810716
    vertex 17.1999999999546 6.7500000001035625 2.5736536041652065
    vertex 17.19999999999974 -0.7499999998964378 2.5736536041652114
  endloop
endfacet
facet normal 5.2128252702348635e-12 -0.8660254037844392 -0.49999999999999917
  outer loop
    vertex 16.599999999999742 -0.7499999999000488 2.5736536041652105
    vertex 17.199999999990716 0.7500000001035602 -0.02442260718810716
    vertex 17.19999999999974 -0.7499999998964378 2.5736536041652114
  endloop
endfacet
facet normal 5.2128252702348635e-12 -0.8660254037844392 -0.49999999999999917
  outer loop
    vertex 17.199999999990716 0.7500000001035602 -0.02442260718810716
    vertex 16.599999999999742 -0.7499999999000488 2.5736536041652105
    vertex 16.599999999990718 0.7500000000999489 -0.024422607188107865
  endloop
endfacet
facet normal -1.2698175844243124e-15 5.551115123125783e-16 1.0
  outer loop
    vertex 17.1999999999546 6.7500000001035625 2.5736536041652065
    vertex 16.599999999999742 -0.7499999999000488 2.5736536041652105
    vertex 17.19999999999974 -0.7499999998964378 2.5736536041652114
  endloop
endfacet
facet normal -1.2698175844243124e-15 5.551115123125783e-16 1.0
  outer loop
    vertex 16.599999999999742 -0.7499999999000488 2.5736536041652105
    vertex 17.1999999999546 6.7500000001035625 2.5736536041652065
    vertex 16.5999999999546 6.750000000099951 2.5736536041652056
  endloop
endfacet
facet normal -1.0 -6.018519016492974e-12 -1.2698175844212047e-15
  outer loop
    vertex 16.599999999990718 0.7500000000999489 -0.024422607188107865
    vertex 16.5999999999546 6.750000000099951 2.5736536041652056
    vertex 16.599999999963636 5.250000000099953 -0.024422607188106807
  endloop
endfacet
facet normal -1.0 -6.018519016492974e-12 -1.2698175844212047e-15
  outer loop
    vertex 16.5999999999546 6.750000000099951 2.5736536041652056
    vertex 16.599999999990718 0.7500000000999489 -0.024422607188107865
    vertex 16.599999999999742 -0.7499999999000488 2.5736536041652105
  endloop
endfacet
endsolid hexCoupler
