solid bottleOpenerTest
facet normal 0.0 0.0 -1.0
  outer loop
    vertex 1.9884009068541848 13.8606953294847 0.0
    vertex 1.7330762015712287 10.6439171670724 0.0
    vertex 1.1967405477523816 13.297089545910977 0.0
  endloop
endfacet
facet normal 0.0 0.0 -1.0
  outer loop
    vertex 1.7330762015712287 10.6439171670724 0.0
    vertex 1.9884009068541848 13.8606953294847 0.0
    vertex 1.8197698248540577 11.1591137253919 0.0
  endloop
endfacet
facet normal 0.0 0.0 -1.0
  outer loop
    vertex 1.8197698248540577 11.1591137253919 0.0
    vertex 1.9884009068541848 13.8606953294847 0.0
    vertex 2.0368521158218535 11.634317425893412 0.0
  endloop
endfacet
facet normal 0.0 0.0 -1.0
  outer loop
    vertex 2.0368521158218535 11.634317425893412 0.0
    vertex 1.9884009068541848 13.8606953294847 0.0
    vertex 2.8989580040786964 14.200199933496252 0.0
  endloop
endfacet
facet normal 0.0 0.0 -1.0
  outer loop
    vertex 2.0368521158218535 11.634317425893412 0.0
    vertex 2.8989580040786964 14.200199933496252 0.0
    vertex 2.369529275090665 12.037143921699002 0.0
  endloop
endfacet
facet normal 0.0 0.0 -1.0
  outer loop
    vertex 2.369529275090665 12.037143921699002 0.0
    vertex 2.8989580040786964 14.200199933496252 0.0
    vertex 2.7951299040312527 12.340141252821772 0.0
  endloop
endfacet
facet normal 0.0 0.0 -1.0
  outer loop
    vertex 2.7951299040312527 12.340141252821772 0.0
    vertex 2.8989580040786964 14.200199933496252 0.0
    vertex 3.284650023119642 12.5226606518725 0.0
  endloop
endfacet
facet normal 0.0 0.0 -1.0
  outer loop
    vertex 3.284650023119642 12.5226606518725 0.0
    vertex 2.8989580040786964 14.200199933496252 0.0
    vertex 3.866358878016818 14.292466680240022 0.0
  endloop
endfacet
facet normal 0.0 0.0 -1.0
  outer loop
    vertex 3.284650023119642 12.5226606518725 0.0
    vertex 3.866358878016818 14.292466680240022 0.0
    vertex 3.8047296452102213 12.57226372343342 0.0
  endloop
endfacet
facet normal 0.0 0.0 -1.0
  outer loop
    vertex 3.8047296452102213 12.57226372343342 0.0
    vertex 3.866358878016818 14.292466680240022 0.0
    vertex 4.3199262035297465 12.485570100150614 0.0
  endloop
endfacet
facet normal 0.0 0.0 -1.0
  outer loop
    vertex 4.3199262035297465 12.485570100150614 0.0
    vertex 3.866358878016818 14.292466680240022 0.0
    vertex 8.773529291416374 14.313756933752355 0.0
  endloop
endfacet
facet normal 0.0 0.0 -1.0
  outer loop
    vertex 4.3199262035297465 12.485570100150614 0.0
    vertex 8.773529291416374 14.313756933752355 0.0
    vertex 4.795129904031251 12.26848780918278 0.0
  endloop
endfacet
facet normal 0.0 0.0 -1.0
  outer loop
    vertex 4.795129904031251 12.26848780918278 0.0
    vertex 8.773529291416374 14.313756933752355 0.0
    vertex 5.197956399836835 11.935810649913995 0.0
  endloop
endfacet
facet normal 0.0 0.0 -1.0
  outer loop
    vertex 5.197956399836835 11.935810649913995 0.0
    vertex 8.773529291416374 14.313756933752355 0.0
    vertex 5.500953730959629 11.51021002097338 0.0
  endloop
endfacet
facet normal 0.0 0.0 -1.0
  outer loop
    vertex 5.500953730959629 11.51021002097338 0.0
    vertex 8.773529291416374 14.313756933752355 0.0
    vertex 5.683473130010341 11.020689901884987 0.0
  endloop
endfacet
facet normal 0.0 0.0 -1.0
  outer loop
    vertex 5.683473130010341 11.020689901884987 0.0
    vertex 8.773529291416374 14.313756933752355 0.0
    vertex 5.733076201571229 10.50061027979441 0.0
  endloop
endfacet
facet normal 0.0 0.0 -1.0
  outer loop
    vertex 5.733076201571229 10.50061027979441 0.0
    vertex 8.773529291416374 14.313756933752355 0.0
    vertex 8.164137865421322 10.104455753399394 0.0
  endloop
endfacet
facet normal 0.0 0.0 -1.0
  outer loop
    vertex 8.164137865421322 10.104455753399394 0.0
    vertex 8.773529291416374 14.313756933752355 0.0
    vertex 9.074408610912922 11.192202556316504 0.0
  endloop
endfacet
facet normal 0.0 0.0 -1.0
  outer loop
    vertex 9.074408610912922 11.192202556316504 0.0
    vertex 8.773529291416374 14.313756933752355 0.0
    vertex 10.797224224042083 11.28121180445793 0.0
  endloop
endfacet
facet normal 0.0 0.0 -1.0
  outer loop
    vertex 0.17413218160111288 11.663864279677384 0.0
    vertex 0.10513999150839619 9.73814552594082 0.0
    vertex 0.012873244764606433 10.705546399878953 0.0
  endloop
endfacet
facet normal 0.0 0.0 -1.0
  outer loop
    vertex 0.10513999150839619 9.73814552594082 0.0
    vertex 0.17413218160111288 11.663864279677384 0.0
    vertex 3.4147683391980292 -0.05147313368499855 0.0
  endloop
endfacet
facet normal 0.0 0.0 -1.0
  outer loop
    vertex 3.4147683391980292 -0.05147313368499855 0.0
    vertex 0.17413218160111288 11.663864279677384 0.0
    vertex 0.5779272719655008 12.547791385522965 0.0
  endloop
endfacet
facet normal 0.0 0.0 -1.0
  outer loop
    vertex 3.4147683391980292 -0.05147313368499855 0.0
    vertex 0.5779272719655008 12.547791385522965 0.0
    vertex 1.1967405477523816 13.297089545910977 0.0
  endloop
endfacet
facet normal 0.0 0.0 -1.0
  outer loop
    vertex 3.4147683391980292 -0.05147313368499855 0.0
    vertex 1.1967405477523816 13.297089545910977 0.0
    vertex 1.7826792731321413 10.123837544981807 0.0
  endloop
endfacet
facet normal 0.0 0.0 -1.0
  outer loop
    vertex 1.7826792731321413 10.123837544981807 0.0
    vertex 1.1967405477523816 13.297089545910977 0.0
    vertex 1.7330762015712287 10.6439171670724 0.0
  endloop
endfacet
facet normal 0.0 0.0 -1.0
  outer loop
    vertex 3.4147683391980292 -0.05147313368499855 0.0
    vertex 1.7826792731321413 10.123837544981807 0.0
    vertex 1.965198672182883 9.634317425893398 0.0
  endloop
endfacet
facet normal 0.0 0.0 -1.0
  outer loop
    vertex 3.4147683391980292 -0.05147313368499855 0.0
    vertex 1.965198672182883 9.634317425893398 0.0
    vertex 2.2681960033056665 9.208716796952796 0.0
  endloop
endfacet
facet normal 0.0 0.0 -1.0
  outer loop
    vertex 3.4147683391980292 -0.05147313368499855 0.0
    vertex 2.2681960033056665 9.208716796952796 0.0
    vertex 2.671022499111247 8.876039637684007 0.0
  endloop
endfacet
facet normal 0.0 0.0 -1.0
  outer loop
    vertex 3.4147683391980292 -0.05147313368499855 0.0
    vertex 2.671022499111247 8.876039637684007 0.0
    vertex 3.1462261996127476 8.658957346716198 0.0
  endloop
endfacet
facet normal 0.0 0.0 -1.0
  outer loop
    vertex 3.4147683391980292 -0.05147313368499855 0.0
    vertex 3.1462261996127476 8.658957346716198 0.0
    vertex 3.6614227579322525 8.572263723433398 0.0
  endloop
endfacet
facet normal 0.0 0.0 -1.0
  outer loop
    vertex 3.4147683391980292 -0.05147313368499855 0.0
    vertex 3.6614227579322525 8.572263723433398 0.0
    vertex 18.104101744058845 -0.05147313368499792 0.0
  endloop
endfacet
facet normal 0.0 0.0 -1.0
  outer loop
    vertex 18.104101744058845 -0.05147313368499792 0.0
    vertex 3.6614227579322525 8.572263723433398 0.0
    vertex 4.181502380022864 8.621866794994288 0.0
  endloop
endfacet
facet normal 0.0 0.0 -1.0
  outer loop
    vertex 18.104101744058845 -0.05147313368499792 0.0
    vertex 4.181502380022864 8.621866794994288 0.0
    vertex 4.6710224991112534 8.804386194045017 0.0
  endloop
endfacet
facet normal 0.0 0.0 -1.0
  outer loop
    vertex 18.104101744058845 -0.05147313368499792 0.0
    vertex 4.6710224991112534 8.804386194045017 0.0
    vertex 8.378686801627012 6.487956772173219 0.0
  endloop
endfacet
facet normal 0.0 0.0 -1.0
  outer loop
    vertex 8.378686801627012 6.487956772173219 0.0
    vertex 4.6710224991112534 8.804386194045017 0.0
    vertex 5.09662312805186 9.107383525167803 0.0
  endloop
endfacet
facet normal 0.0 0.0 -1.0
  outer loop
    vertex 8.378686801627012 6.487956772173219 0.0
    vertex 5.09662312805186 9.107383525167803 0.0
    vertex 5.429300287320621 9.510210020973393 0.0
  endloop
endfacet
facet normal 0.0 0.0 -1.0
  outer loop
    vertex 8.378686801627012 6.487956772173219 0.0
    vertex 5.429300287320621 9.510210020973393 0.0
    vertex 5.646382578288424 9.985413721474915 0.0
  endloop
endfacet
facet normal 0.0 0.0 -1.0
  outer loop
    vertex 8.378686801627012 6.487956772173219 0.0
    vertex 5.646382578288424 9.985413721474915 0.0
    vertex 5.733076201571229 10.50061027979441 0.0
  endloop
endfacet
facet normal 0.0 0.0 -1.0
  outer loop
    vertex 8.378686801627012 6.487956772173219 0.0
    vertex 5.733076201571229 10.50061027979441 0.0
    vertex 8.164137865421322 10.104455753399394 0.0
  endloop
endfacet
facet normal 0.0 0.0 -1.0
  outer loop
    vertex 18.104101744058845 -0.05147313368499792 0.0
    vertex 8.378686801627012 6.487956772173219 0.0
    vertex 11.741646392507008 4.31509359863174 0.0
  endloop
endfacet
facet normal 0.0 0.0 -1.0
  outer loop
    vertex 18.104101744058845 -0.05147313368499792 0.0
    vertex 11.741646392507008 4.31509359863174 0.0
    vertex 23.206851368395768 10.458961532748074 0.0
  endloop
endfacet
facet normal 0.0 0.0 -1.0
  outer loop
    vertex 18.104101744058845 -0.05147313368499792 0.0
    vertex 23.206851368395768 10.458961532748074 0.0
    vertex 25.558483292740732 8.93066084697079 0.0
  endloop
endfacet
facet normal 0.0 0.0 -1.0
  outer loop
    vertex 25.558483292740732 8.93066084697079 0.0
    vertex 23.206851368395768 10.458961532748074 0.0
    vertex 23.519259435950165 10.673517835922027 0.0
  endloop
endfacet
facet normal 0.0 0.0 -1.0
  outer loop
    vertex 25.558483292740732 8.93066084697079 0.0
    vertex 23.519259435950165 10.673517835922027 0.0
    vertex 23.87655371425021 10.799906152624093 0.0
  endloop
endfacet
facet normal 0.0 0.0 -1.0
  outer loop
    vertex 25.558483292740732 8.93066084697079 0.0
    vertex 23.87655371425021 10.799906152624093 0.0
    vertex 24.254385188686467 10.82951332793764 0.0
  endloop
endfacet
facet normal 0.0 0.0 -1.0
  outer loop
    vertex 25.558483292740732 8.93066084697079 0.0
    vertex 24.254385188686467 10.82951332793764 0.0
    vertex 24.627005268672164 10.760321681793181 0.0
  endloop
endfacet
facet normal 0.0 0.0 -1.0
  outer loop
    vertex 25.558483292740732 8.93066084697079 0.0
    vertex 24.627005268672164 10.760321681793181 0.0
    vertex 24.969020511540073 10.597046510530825 0.0
  endloop
endfacet
facet normal 0.0 0.0 -1.0
  outer loop
    vertex 25.558483292740732 8.93066084697079 0.0
    vertex 24.969020511540073 10.597046510530825 0.0
    vertex 25.257123143695644 10.350814747247178 0.0
  endloop
endfacet
facet normal 0.0 0.0 -1.0
  outer loop
    vertex 25.558483292740732 8.93066084697079 0.0
    vertex 25.257123143695644 10.350814747247178 0.0
    vertex 25.471679446869597 10.038406679692805 0.0
  endloop
endfacet
facet normal 0.0 0.0 -1.0
  outer loop
    vertex 25.558483292740732 8.93066084697079 0.0
    vertex 25.471679446869597 10.038406679692805 0.0
    vertex 25.598067763571663 9.681112401392769 0.0
  endloop
endfacet
facet normal 0.0 0.0 -1.0
  outer loop
    vertex 25.558483292740732 8.93066084697079 0.0
    vertex 25.598067763571663 9.681112401392769 0.0
    vertex 25.627674938885214 9.303280926956482 0.0
  endloop
endfacet
facet normal 0.0 0.0 1.0
  outer loop
    vertex 0.10513999150839619 9.73814552594082 3.0
    vertex 0.17413218160111288 11.663864279677384 3.0
    vertex 0.012873244764606433 10.705546399878953 3.0
  endloop
endfacet
facet normal 0.0 0.0 1.0
  outer loop
    vertex 0.17413218160111288 11.663864279677384 3.0
    vertex 0.10513999150839619 9.73814552594082 3.0
    vertex 3.4147683391980292 -0.05147313368499855 3.0
  endloop
endfacet
facet normal 0.0 0.0 1.0
  outer loop
    vertex 0.17413218160111288 11.663864279677384 3.0
    vertex 3.4147683391980292 -0.05147313368499855 3.0
    vertex 0.5779272719655008 12.547791385522965 3.0
  endloop
endfacet
facet normal 0.0 0.0 1.0
  outer loop
    vertex 0.5779272719655008 12.547791385522965 3.0
    vertex 3.4147683391980292 -0.05147313368499855 3.0
    vertex 1.1967405477523816 13.297089545910977 3.0
  endloop
endfacet
facet normal 0.0 0.0 1.0
  outer loop
    vertex 1.1967405477523816 13.297089545910977 3.0
    vertex 3.4147683391980292 -0.05147313368499855 3.0
    vertex 1.7826792731321413 10.123837544981807 3.0
  endloop
endfacet
facet normal 0.0 0.0 1.0
  outer loop
    vertex 1.1967405477523816 13.297089545910977 3.0
    vertex 1.7826792731321413 10.123837544981807 3.0
    vertex 1.7330762015712287 10.6439171670724 3.0
  endloop
endfacet
facet normal 0.0 0.0 1.0
  outer loop
    vertex 1.7826792731321413 10.123837544981807 3.0
    vertex 3.4147683391980292 -0.05147313368499855 3.0
    vertex 1.965198672182883 9.634317425893398 3.0
  endloop
endfacet
facet normal 0.0 0.0 1.0
  outer loop
    vertex 1.965198672182883 9.634317425893398 3.0
    vertex 3.4147683391980292 -0.05147313368499855 3.0
    vertex 2.2681960033056665 9.208716796952796 3.0
  endloop
endfacet
facet normal 0.0 0.0 1.0
  outer loop
    vertex 2.2681960033056665 9.208716796952796 3.0
    vertex 3.4147683391980292 -0.05147313368499855 3.0
    vertex 2.671022499111247 8.876039637684007 3.0
  endloop
endfacet
facet normal 0.0 0.0 1.0
  outer loop
    vertex 2.671022499111247 8.876039637684007 3.0
    vertex 3.4147683391980292 -0.05147313368499855 3.0
    vertex 3.1462261996127476 8.658957346716198 3.0
  endloop
endfacet
facet normal 0.0 0.0 1.0
  outer loop
    vertex 3.1462261996127476 8.658957346716198 3.0
    vertex 3.4147683391980292 -0.05147313368499855 3.0
    vertex 3.6614227579322525 8.572263723433398 3.0
  endloop
endfacet
facet normal 0.0 0.0 1.0
  outer loop
    vertex 3.6614227579322525 8.572263723433398 3.0
    vertex 3.4147683391980292 -0.05147313368499855 3.0
    vertex 18.104101744058845 -0.05147313368499792 3.0
  endloop
endfacet
facet normal 0.0 0.0 1.0
  outer loop
    vertex 3.6614227579322525 8.572263723433398 3.0
    vertex 18.104101744058845 -0.05147313368499792 3.0
    vertex 4.181502380022864 8.621866794994288 3.0
  endloop
endfacet
facet normal 0.0 0.0 1.0
  outer loop
    vertex 4.181502380022864 8.621866794994288 3.0
    vertex 18.104101744058845 -0.05147313368499792 3.0
    vertex 4.6710224991112534 8.804386194045017 3.0
  endloop
endfacet
facet normal 0.0 0.0 1.0
  outer loop
    vertex 4.6710224991112534 8.804386194045017 3.0
    vertex 18.104101744058845 -0.05147313368499792 3.0
    vertex 8.378686801627012 6.487956772173219 3.0
  endloop
endfacet
facet normal 0.0 0.0 1.0
  outer loop
    vertex 4.6710224991112534 8.804386194045017 3.0
    vertex 8.378686801627012 6.487956772173219 3.0
    vertex 5.09662312805186 9.107383525167803 3.0
  endloop
endfacet
facet normal 0.0 0.0 1.0
  outer loop
    vertex 5.09662312805186 9.107383525167803 3.0
    vertex 8.378686801627012 6.487956772173219 3.0
    vertex 5.429300287320621 9.510210020973393 3.0
  endloop
endfacet
facet normal 0.0 0.0 1.0
  outer loop
    vertex 5.429300287320621 9.510210020973393 3.0
    vertex 8.378686801627012 6.487956772173219 3.0
    vertex 5.646382578288424 9.985413721474915 3.0
  endloop
endfacet
facet normal 0.0 0.0 1.0
  outer loop
    vertex 5.646382578288424 9.985413721474915 3.0
    vertex 8.378686801627012 6.487956772173219 3.0
    vertex 5.733076201571229 10.50061027979441 3.0
  endloop
endfacet
facet normal 0.0 0.0 1.0
  outer loop
    vertex 5.733076201571229 10.50061027979441 3.0
    vertex 8.378686801627012 6.487956772173219 3.0
    vertex 8.164137865421322 10.104455753399394 3.0
  endloop
endfacet
facet normal 0.0 0.0 1.0
  outer loop
    vertex 8.378686801627012 6.487956772173219 3.0
    vertex 18.104101744058845 -0.05147313368499792 3.0
    vertex 11.741646392507008 4.31509359863174 3.0
  endloop
endfacet
facet normal 0.0 0.0 1.0
  outer loop
    vertex 11.741646392507008 4.31509359863174 3.0
    vertex 18.104101744058845 -0.05147313368499792 3.0
    vertex 23.206851368395768 10.458961532748074 3.0
  endloop
endfacet
facet normal 0.0 0.0 1.0
  outer loop
    vertex 23.206851368395768 10.458961532748074 3.0
    vertex 18.104101744058845 -0.05147313368499792 3.0
    vertex 25.558483292740732 8.93066084697079 3.0
  endloop
endfacet
facet normal 0.0 0.0 1.0
  outer loop
    vertex 23.206851368395768 10.458961532748074 3.0
    vertex 25.558483292740732 8.93066084697079 3.0
    vertex 23.519259435950165 10.673517835922027 3.0
  endloop
endfacet
facet normal 0.0 0.0 1.0
  outer loop
    vertex 23.519259435950165 10.673517835922027 3.0
    vertex 25.558483292740732 8.93066084697079 3.0
    vertex 23.87655371425021 10.799906152624093 3.0
  endloop
endfacet
facet normal 0.0 0.0 1.0
  outer loop
    vertex 23.87655371425021 10.799906152624093 3.0
    vertex 25.558483292740732 8.93066084697079 3.0
    vertex 24.254385188686467 10.82951332793764 3.0
  endloop
endfacet
facet normal 0.0 0.0 1.0
  outer loop
    vertex 24.254385188686467 10.82951332793764 3.0
    vertex 25.558483292740732 8.93066084697079 3.0
    vertex 24.627005268672164 10.760321681793181 3.0
  endloop
endfacet
facet normal 0.0 0.0 1.0
  outer loop
    vertex 24.627005268672164 10.760321681793181 3.0
    vertex 25.558483292740732 8.93066084697079 3.0
    vertex 24.969020511540073 10.597046510530825 3.0
  endloop
endfacet
facet normal 0.0 0.0 1.0
  outer loop
    vertex 24.969020511540073 10.597046510530825 3.0
    vertex 25.558483292740732 8.93066084697079 3.0
    vertex 25.257123143695644 10.350814747247178 3.0
  endloop
endfacet
facet normal 0.0 0.0 1.0
  outer loop
    vertex 25.257123143695644 10.350814747247178 3.0
    vertex 25.558483292740732 8.93066084697079 3.0
    vertex 25.471679446869597 10.038406679692805 3.0
  endloop
endfacet
facet normal 0.0 0.0 1.0
  outer loop
    vertex 25.471679446869597 10.038406679692805 3.0
    vertex 25.558483292740732 8.93066084697079 3.0
    vertex 25.598067763571663 9.681112401392769 3.0
  endloop
endfacet
facet normal 0.0 0.0 1.0
  outer loop
    vertex 25.598067763571663 9.681112401392769 3.0
    vertex 25.558483292740732 8.93066084697079 3.0
    vertex 25.627674938885214 9.303280926956482 3.0
  endloop
endfacet
facet normal 0.0 0.0 1.0
  outer loop
    vertex 1.7330762015712287 10.6439171670724 3.0
    vertex 1.9884009068541848 13.8606953294847 3.0
    vertex 1.1967405477523816 13.297089545910977 3.0
  endloop
endfacet
facet normal 0.0 0.0 1.0
  outer loop
    vertex 1.9884009068541848 13.8606953294847 3.0
    vertex 1.7330762015712287 10.6439171670724 3.0
    vertex 1.8197698248540577 11.1591137253919 3.0
  endloop
endfacet
facet normal 0.0 0.0 1.0
  outer loop
    vertex 1.9884009068541848 13.8606953294847 3.0
    vertex 1.8197698248540577 11.1591137253919 3.0
    vertex 2.0368521158218535 11.634317425893412 3.0
  endloop
endfacet
facet normal 0.0 0.0 1.0
  outer loop
    vertex 1.9884009068541848 13.8606953294847 3.0
    vertex 2.0368521158218535 11.634317425893412 3.0
    vertex 2.8989580040786964 14.200199933496252 3.0
  endloop
endfacet
facet normal 0.0 0.0 1.0
  outer loop
    vertex 2.8989580040786964 14.200199933496252 3.0
    vertex 2.0368521158218535 11.634317425893412 3.0
    vertex 2.369529275090665 12.037143921699002 3.0
  endloop
endfacet
facet normal 0.0 0.0 1.0
  outer loop
    vertex 2.8989580040786964 14.200199933496252 3.0
    vertex 2.369529275090665 12.037143921699002 3.0
    vertex 2.7951299040312527 12.340141252821772 3.0
  endloop
endfacet
facet normal 0.0 0.0 1.0
  outer loop
    vertex 2.8989580040786964 14.200199933496252 3.0
    vertex 2.7951299040312527 12.340141252821772 3.0
    vertex 3.284650023119642 12.5226606518725 3.0
  endloop
endfacet
facet normal 0.0 0.0 1.0
  outer loop
    vertex 2.8989580040786964 14.200199933496252 3.0
    vertex 3.284650023119642 12.5226606518725 3.0
    vertex 3.866358878016818 14.292466680240022 3.0
  endloop
endfacet
facet normal 0.0 0.0 1.0
  outer loop
    vertex 3.866358878016818 14.292466680240022 3.0
    vertex 3.284650023119642 12.5226606518725 3.0
    vertex 3.8047296452102213 12.57226372343342 3.0
  endloop
endfacet
facet normal 0.0 0.0 1.0
  outer loop
    vertex 3.866358878016818 14.292466680240022 3.0
    vertex 3.8047296452102213 12.57226372343342 3.0
    vertex 4.3199262035297465 12.485570100150614 3.0
  endloop
endfacet
facet normal 0.0 0.0 1.0
  outer loop
    vertex 3.866358878016818 14.292466680240022 3.0
    vertex 4.3199262035297465 12.485570100150614 3.0
    vertex 8.773529291416374 14.313756933752355 3.0
  endloop
endfacet
facet normal 0.0 0.0 1.0
  outer loop
    vertex 8.773529291416374 14.313756933752355 3.0
    vertex 4.3199262035297465 12.485570100150614 3.0
    vertex 4.795129904031251 12.26848780918278 3.0
  endloop
endfacet
facet normal 0.0 0.0 1.0
  outer loop
    vertex 8.773529291416374 14.313756933752355 3.0
    vertex 4.795129904031251 12.26848780918278 3.0
    vertex 5.197956399836835 11.935810649913995 3.0
  endloop
endfacet
facet normal 0.0 0.0 1.0
  outer loop
    vertex 8.773529291416374 14.313756933752355 3.0
    vertex 5.197956399836835 11.935810649913995 3.0
    vertex 5.500953730959629 11.51021002097338 3.0
  endloop
endfacet
facet normal 0.0 0.0 1.0
  outer loop
    vertex 8.773529291416374 14.313756933752355 3.0
    vertex 5.500953730959629 11.51021002097338 3.0
    vertex 5.683473130010341 11.020689901884987 3.0
  endloop
endfacet
facet normal 0.0 0.0 1.0
  outer loop
    vertex 8.773529291416374 14.313756933752355 3.0
    vertex 5.683473130010341 11.020689901884987 3.0
    vertex 5.733076201571229 10.50061027979441 3.0
  endloop
endfacet
facet normal 0.0 0.0 1.0
  outer loop
    vertex 8.773529291416374 14.313756933752355 3.0
    vertex 5.733076201571229 10.50061027979441 3.0
    vertex 8.164137865421322 10.104455753399394 3.0
  endloop
endfacet
facet normal 0.0 0.0 1.0
  outer loop
    vertex 8.773529291416374 14.313756933752355 3.0
    vertex 8.164137865421322 10.104455753399394 3.0
    vertex 9.074408610912922 11.192202556316504 3.0
  endloop
endfacet
facet normal 0.0 0.0 1.0
  outer loop
    vertex 8.773529291416374 14.313756933752355 3.0
    vertex 9.074408610912922 11.192202556316504 3.0
    vertex 10.797224224042083 11.28121180445793 3.0
  endloop
endfacet
facet normal -0.9954825140501112 -0.09494505895764428 -0.0
  outer loop
    vertex 0.012873244764606433 10.705546399878953 3.0
    vertex 0.10513999150839619 9.73814552594082 0.0
    vertex 0.10513999150839619 9.73814552594082 3.0
  endloop
endfacet
facet normal -0.9954825140501112 -0.09494505895764428 -0.0
  outer loop
    vertex 0.10513999150839619 9.73814552594082 0.0
    vertex 0.012873244764606433 10.705546399878953 3.0
    vertex 0.012873244764606433 10.705546399878953 0.0
  endloop
endfacet
facet normal -0.9861358594367945 0.16593994917696842 0.0
  outer loop
    vertex 0.17413218160111288 11.663864279677384 3.0
    vertex 0.012873244764606433 10.705546399878953 0.0
    vertex 0.012873244764606433 10.705546399878953 3.0
  endloop
endfacet
facet normal -0.9861358594367945 0.16593994917696842 0.0
  outer loop
    vertex 0.012873244764606433 10.705546399878953 0.0
    vertex 0.17413218160111288 11.663864279677384 3.0
    vertex 0.17413218160111288 11.663864279677384 0.0
  endloop
endfacet
facet normal -0.9095856756694217 0.4155164240039154 0.0
  outer loop
    vertex 0.5779272719655008 12.547791385522965 3.0
    vertex 0.17413218160111288 11.663864279677384 0.0
    vertex 0.17413218160111288 11.663864279677384 3.0
  endloop
endfacet
facet normal -0.9095856756694217 0.4155164240039154 0.0
  outer loop
    vertex 0.17413218160111288 11.663864279677384 0.0
    vertex 0.5779272719655008 12.547791385522965 3.0
    vertex 0.5779272719655008 12.547791385522965 0.0
  endloop
endfacet
facet normal -0.7710487312665825 0.6367761412083476 0.0
  outer loop
    vertex 1.1967405477523816 13.297089545910977 3.0
    vertex 0.5779272719655008 12.547791385522965 0.0
    vertex 0.5779272719655008 12.547791385522965 3.0
  endloop
endfacet
facet normal -0.7710487312665825 0.6367761412083476 0.0
  outer loop
    vertex 0.5779272719655008 12.547791385522965 0.0
    vertex 1.1967405477523816 13.297089545910977 3.0
    vertex 1.1967405477523816 13.297089545910977 0.0
  endloop
endfacet
facet normal -0.5799660900461783 0.8146406167117792 0.0
  outer loop
    vertex 1.1967405477523816 13.297089545910977 3.0
    vertex 1.9884009068541848 13.8606953294847 0.0
    vertex 1.1967405477523816 13.297089545910977 0.0
  endloop
endfacet
facet normal -0.5799660900461783 0.8146406167117792 0.0
  outer loop
    vertex 1.9884009068541848 13.8606953294847 0.0
    vertex 1.1967405477523816 13.297089545910977 3.0
    vertex 1.9884009068541848 13.8606953294847 3.0
  endloop
endfacet
facet normal -0.34935971822846906 0.936988680443539 0.0
  outer loop
    vertex 1.9884009068541848 13.8606953294847 3.0
    vertex 2.8989580040786964 14.200199933496252 0.0
    vertex 1.9884009068541848 13.8606953294847 0.0
  endloop
endfacet
facet normal -0.34935971822846906 0.936988680443539 0.0
  outer loop
    vertex 2.8989580040786964 14.200199933496252 0.0
    vertex 1.9884009068541848 13.8606953294847 3.0
    vertex 2.8989580040786964 14.200199933496252 3.0
  endloop
endfacet
facet normal -0.09494505895762739 0.9954825140501127 0.0
  outer loop
    vertex 2.8989580040786964 14.200199933496252 3.0
    vertex 3.866358878016818 14.292466680240022 0.0
    vertex 2.8989580040786964 14.200199933496252 0.0
  endloop
endfacet
facet normal -0.09494505895762739 0.9954825140501127 0.0
  outer loop
    vertex 3.866358878016818 14.292466680240022 0.0
    vertex 2.8989580040786964 14.200199933496252 3.0
    vertex 3.866358878016818 14.292466680240022 3.0
  endloop
endfacet
facet normal -0.004338559973165019 0.9999905884043905 0.0
  outer loop
    vertex 3.866358878016818 14.292466680240022 3.0
    vertex 8.773529291416374 14.313756933752355 0.0
    vertex 3.866358878016818 14.292466680240022 0.0
  endloop
endfacet
facet normal -0.004338559973165019 0.9999905884043905 0.0
  outer loop
    vertex 8.773529291416374 14.313756933752355 0.0
    vertex 3.866358878016818 14.292466680240022 3.0
    vertex 8.773529291416374 14.313756933752355 3.0
  endloop
endfacet
facet normal 0.8317972473489089 0.5550795792521808 0.0
  outer loop
    vertex 8.773529291416374 14.313756933752355 0.0
    vertex 10.797224224042083 11.28121180445793 3.0
    vertex 10.797224224042083 11.28121180445793 0.0
  endloop
endfacet
facet normal 0.8317972473489089 0.5550795792521808 0.0
  outer loop
    vertex 10.797224224042083 11.28121180445793 3.0
    vertex 8.773529291416374 14.313756933752355 0.0
    vertex 8.773529291416374 14.313756933752355 3.0
  endloop
endfacet
facet normal 0.05159617190366138 -0.9986680304510042 0.0
  outer loop
    vertex 10.797224224042083 11.28121180445793 3.0
    vertex 9.074408610912922 11.192202556316504 0.0
    vertex 10.797224224042083 11.28121180445793 0.0
  endloop
endfacet
facet normal 0.05159617190366138 -0.9986680304510042 0.0
  outer loop
    vertex 9.074408610912922 11.192202556316504 0.0
    vertex 10.797224224042083 11.28121180445793 3.0
    vertex 9.074408610912922 11.192202556316504 3.0
  endloop
endfacet
facet normal 0.7668968103536242 -0.641770428011012 0.0
  outer loop
    vertex 9.074408610912922 11.192202556316504 0.0
    vertex 8.164137865421322 10.104455753399394 3.0
    vertex 8.164137865421322 10.104455753399394 0.0
  endloop
endfacet
facet normal 0.7668968103536242 -0.641770428011012 0.0
  outer loop
    vertex 8.164137865421322 10.104455753399394 3.0
    vertex 9.074408610912922 11.192202556316504 0.0
    vertex 9.074408610912922 11.192202556316504 3.0
  endloop
endfacet
facet normal 0.9982449013802254 0.059220915801631115 0.0
  outer loop
    vertex 8.164137865421322 10.104455753399394 0.0
    vertex 8.378686801627012 6.487956772173219 3.0
    vertex 8.378686801627012 6.487956772173219 0.0
  endloop
endfacet
facet normal 0.9982449013802254 0.059220915801631115 0.0
  outer loop
    vertex 8.378686801627012 6.487956772173219 3.0
    vertex 8.164137865421322 10.104455753399394 0.0
    vertex 8.164137865421322 10.104455753399394 3.0
  endloop
endfacet
facet normal 0.5426931672780945 0.8399310246619481 0.0
  outer loop
    vertex 8.378686801627012 6.487956772173219 3.0
    vertex 11.741646392507008 4.31509359863174 0.0
    vertex 8.378686801627012 6.487956772173219 0.0
  endloop
endfacet
facet normal 0.5426931672780945 0.8399310246619481 0.0
  outer loop
    vertex 11.741646392507008 4.31509359863174 0.0
    vertex 8.378686801627012 6.487956772173219 3.0
    vertex 11.741646392507008 4.31509359863174 3.0
  endloop
endfacet
facet normal -0.472328563649164 0.8814225592535726 0.0
  outer loop
    vertex 11.741646392507008 4.31509359863174 3.0
    vertex 23.206851368395768 10.458961532748074 0.0
    vertex 11.741646392507008 4.31509359863174 0.0
  endloop
endfacet
facet normal -0.472328563649164 0.8814225592535726 0.0
  outer loop
    vertex 23.206851368395768 10.458961532748074 0.0
    vertex 11.741646392507008 4.31509359863174 3.0
    vertex 23.206851368395768 10.458961532748074 3.0
  endloop
endfacet
facet normal -0.5661269734302432 0.8243180514550876 0.0
  outer loop
    vertex 23.206851368395768 10.458961532748074 3.0
    vertex 23.519259435950165 10.673517835922027 0.0
    vertex 23.206851368395768 10.458961532748074 0.0
  endloop
endfacet
facet normal -0.5661269734302432 0.8243180514550876 0.0
  outer loop
    vertex 23.519259435950165 10.673517835922027 0.0
    vertex 23.206851368395768 10.458961532748074 3.0
    vertex 23.519259435950165 10.673517835922027 3.0
  endloop
endfacet
facet normal -0.3334874536567442 0.9427545376467519 0.0
  outer loop
    vertex 23.519259435950165 10.673517835922027 3.0
    vertex 23.87655371425021 10.799906152624093 0.0
    vertex 23.519259435950165 10.673517835922027 0.0
  endloop
endfacet
facet normal -0.3334874536567442 0.9427545376467519 0.0
  outer loop
    vertex 23.87655371425021 10.799906152624093 0.0
    vertex 23.519259435950165 10.673517835922027 3.0
    vertex 23.87655371425021 10.799906152624093 3.0
  endloop
endfacet
facet normal -0.0781213150307177 0.9969438600733099 0.0
  outer loop
    vertex 23.87655371425021 10.799906152624093 3.0
    vertex 24.254385188686467 10.82951332793764 0.0
    vertex 23.87655371425021 10.799906152624093 0.0
  endloop
endfacet
facet normal -0.0781213150307177 0.9969438600733099 0.0
  outer loop
    vertex 24.254385188686467 10.82951332793764 0.0
    vertex 23.87655371425021 10.799906152624093 3.0
    vertex 24.254385188686467 10.82951332793764 3.0
  endloop
endfacet
facet normal 0.18256866211319575 0.983193105963522 0.0
  outer loop
    vertex 24.254385188686467 10.82951332793764 3.0
    vertex 24.627005268672164 10.760321681793181 0.0
    vertex 24.254385188686467 10.82951332793764 0.0
  endloop
endfacet
facet normal 0.18256866211319575 0.983193105963522 0.0
  outer loop
    vertex 24.627005268672164 10.760321681793181 0.0
    vertex 24.254385188686467 10.82951332793764 3.0
    vertex 24.627005268672164 10.760321681793181 3.0
  endloop
endfacet
facet normal 0.43081688664312606 0.9024393664857067 0.0
  outer loop
    vertex 24.627005268672164 10.760321681793181 3.0
    vertex 24.969020511540073 10.597046510530825 0.0
    vertex 24.627005268672164 10.760321681793181 0.0
  endloop
endfacet
facet normal 0.43081688664312606 0.9024393664857067 0.0
  outer loop
    vertex 24.969020511540073 10.597046510530825 0.0
    vertex 24.627005268672164 10.760321681793181 3.0
    vertex 24.969020511540073 10.597046510530825 3.0
  endloop
endfacet
facet normal 0.649705652306777 0.7601858755334944 0.0
  outer loop
    vertex 24.969020511540073 10.597046510530825 3.0
    vertex 25.257123143695644 10.350814747247178 0.0
    vertex 24.969020511540073 10.597046510530825 0.0
  endloop
endfacet
facet normal 0.649705652306777 0.7601858755334944 0.0
  outer loop
    vertex 25.257123143695644 10.350814747247178 0.0
    vertex 24.969020511540073 10.597046510530825 3.0
    vertex 25.257123143695644 10.350814747247178 3.0
  endloop
endfacet
facet normal 0.8243180514550705 0.5661269734302682 0.0
  outer loop
    vertex 25.257123143695644 10.350814747247178 0.0
    vertex 25.471679446869597 10.038406679692805 3.0
    vertex 25.471679446869597 10.038406679692805 0.0
  endloop
endfacet
facet normal 0.8243180514550705 0.5661269734302682 0.0
  outer loop
    vertex 25.471679446869597 10.038406679692805 3.0
    vertex 25.257123143695644 10.350814747247178 0.0
    vertex 25.257123143695644 10.350814747247178 3.0
  endloop
endfacet
facet normal 0.9427545376467475 0.3334874536567563 0.0
  outer loop
    vertex 25.471679446869597 10.038406679692805 0.0
    vertex 25.598067763571663 9.681112401392769 3.0
    vertex 25.598067763571663 9.681112401392769 0.0
  endloop
endfacet
facet normal 0.9427545376467475 0.3334874536567563 0.0
  outer loop
    vertex 25.598067763571663 9.681112401392769 3.0
    vertex 25.471679446869597 10.038406679692805 0.0
    vertex 25.471679446869597 10.038406679692805 3.0
  endloop
endfacet
facet normal 0.9969438600733099 0.07812131503071827 0.0
  outer loop
    vertex 25.598067763571663 9.681112401392769 0.0
    vertex 25.627674938885214 9.303280926956482 3.0
    vertex 25.627674938885214 9.303280926956482 0.0
  endloop
endfacet
facet normal 0.9969438600733099 0.07812131503071827 0.0
  outer loop
    vertex 25.627674938885214 9.303280926956482 3.0
    vertex 25.598067763571663 9.681112401392769 0.0
    vertex 25.598067763571663 9.681112401392769 3.0
  endloop
endfacet
facet normal 0.9831931059635117 -0.18256866211325193 0.0
  outer loop
    vertex 25.627674938885214 9.303280926956482 0.0
    vertex 25.558483292740732 8.93066084697079 3.0
    vertex 25.558483292740732 8.93066084697079 0.0
  endloop
endfacet
facet normal 0.9831931059635117 -0.18256866211325193 0.0
  outer loop
    vertex 25.558483292740732 8.93066084697079 3.0
    vertex 25.627674938885214 9.303280926956482 0.0
    vertex 25.627674938885214 9.303280926956482 3.0
  endloop
endfacet
facet normal 0.7695144785687699 -0.6386293661217232 0.0
  outer loop
    vertex 25.558483292740732 8.93066084697079 0.0
    vertex 18.104101744058845 -0.05147313368499792 3.0
    vertex 18.104101744058845 -0.05147313368499792 0.0
  endloop
endfacet
facet normal 0.7695144785687699 -0.6386293661217232 0.0
  outer loop
    vertex 18.104101744058845 -0.05147313368499792 3.0
    vertex 25.558483292740732 8.93066084697079 0.0
    vertex 25.558483292740732 8.93066084697079 3.0
  endloop
endfacet
facet normal 2.976024350575579e-17 -1.0 0.0
  outer loop
    vertex 18.104101744058845 -0.05147313368499792 3.0
    vertex 3.4147683391980292 -0.05147313368499855 0.0
    vertex 18.104101744058845 -0.05147313368499792 0.0
  endloop
endfacet
facet normal 2.976024350575579e-17 -1.0 0.0
  outer loop
    vertex 3.4147683391980292 -0.05147313368499855 0.0
    vertex 18.104101744058845 -0.05147313368499792 3.0
    vertex 3.4147683391980292 -0.05147313368499855 3.0
  endloop
endfacet
facet normal -0.9473270227305272 -0.3202678753863952 -0.0
  outer loop
    vertex 0.10513999150839619 9.73814552594082 3.0
    vertex 3.4147683391980292 -0.05147313368499855 0.0
    vertex 3.4147683391980292 -0.05147313368499855 3.0
  endloop
endfacet
facet normal -0.9473270227305272 -0.3202678753863952 -0.0
  outer loop
    vertex 3.4147683391980292 -0.05147313368499855 0.0
    vertex 0.10513999150839619 9.73814552594082 3.0
    vertex 0.10513999150839619 9.73814552594082 0.0
  endloop
endfacet
facet normal -0.7710487312666019 0.636776141208324 0.0
  outer loop
    vertex 5.429300287320621 9.510210020973393 3.0
    vertex 5.09662312805186 9.107383525167803 0.0
    vertex 5.09662312805186 9.107383525167803 3.0
  endloop
endfacet
facet normal -0.7710487312666019 0.636776141208324 0.0
  outer loop
    vertex 5.09662312805186 9.107383525167803 0.0
    vertex 5.429300287320621 9.510210020973393 3.0
    vertex 5.429300287320621 9.510210020973393 0.0
  endloop
endfacet
facet normal -0.9095856756694265 0.41551642400390526 0.0
  outer loop
    vertex 5.646382578288424 9.985413721474915 3.0
    vertex 5.429300287320621 9.510210020973393 0.0
    vertex 5.429300287320621 9.510210020973393 3.0
  endloop
endfacet
facet normal -0.9095856756694265 0.41551642400390526 0.0
  outer loop
    vertex 5.429300287320621 9.510210020973393 0.0
    vertex 5.646382578288424 9.985413721474915 3.0
    vertex 5.646382578288424 9.985413721474915 0.0
  endloop
endfacet
facet normal -0.9861358594367966 0.1659399491769559 0.0
  outer loop
    vertex 5.733076201571229 10.50061027979441 3.0
    vertex 5.646382578288424 9.985413721474915 0.0
    vertex 5.646382578288424 9.985413721474915 3.0
  endloop
endfacet
facet normal -0.9861358594367966 0.1659399491769559 0.0
  outer loop
    vertex 5.646382578288424 9.985413721474915 0.0
    vertex 5.733076201571229 10.50061027979441 3.0
    vertex 5.733076201571229 10.50061027979441 0.0
  endloop
endfacet
facet normal -0.9954825140501148 -0.09494505895760677 -0.0
  outer loop
    vertex 5.683473130010341 11.020689901884987 3.0
    vertex 5.733076201571229 10.50061027979441 0.0
    vertex 5.733076201571229 10.50061027979441 3.0
  endloop
endfacet
facet normal -0.9954825140501148 -0.09494505895760677 -0.0
  outer loop
    vertex 5.733076201571229 10.50061027979441 0.0
    vertex 5.683473130010341 11.020689901884987 3.0
    vertex 5.683473130010341 11.020689901884987 0.0
  endloop
endfacet
facet normal -0.9369886804435474 -0.3493597182284466 -0.0
  outer loop
    vertex 5.500953730959629 11.51021002097338 3.0
    vertex 5.683473130010341 11.020689901884987 0.0
    vertex 5.683473130010341 11.020689901884987 3.0
  endloop
endfacet
facet normal -0.9369886804435474 -0.3493597182284466 -0.0
  outer loop
    vertex 5.683473130010341 11.020689901884987 0.0
    vertex 5.500953730959629 11.51021002097338 3.0
    vertex 5.500953730959629 11.51021002097338 0.0
  endloop
endfacet
facet normal -0.8146406167117647 -0.5799660900461989 -0.0
  outer loop
    vertex 5.197956399836835 11.935810649913995 3.0
    vertex 5.500953730959629 11.51021002097338 0.0
    vertex 5.500953730959629 11.51021002097338 3.0
  endloop
endfacet
facet normal -0.8146406167117647 -0.5799660900461989 -0.0
  outer loop
    vertex 5.500953730959629 11.51021002097338 0.0
    vertex 5.197956399836835 11.935810649913995 3.0
    vertex 5.197956399836835 11.935810649913995 0.0
  endloop
endfacet
facet normal -0.6367761412083583 -0.7710487312665735 -0.0
  outer loop
    vertex 5.197956399836835 11.935810649913995 3.0
    vertex 4.795129904031251 12.26848780918278 0.0
    vertex 5.197956399836835 11.935810649913995 0.0
  endloop
endfacet
facet normal -0.6367761412083583 -0.7710487312665735 -0.0
  outer loop
    vertex 4.795129904031251 12.26848780918278 0.0
    vertex 5.197956399836835 11.935810649913995 3.0
    vertex 4.795129904031251 12.26848780918278 3.0
  endloop
endfacet
facet normal -0.41551642400397015 -0.9095856756693966 -0.0
  outer loop
    vertex 4.795129904031251 12.26848780918278 3.0
    vertex 4.3199262035297465 12.485570100150614 0.0
    vertex 4.795129904031251 12.26848780918278 0.0
  endloop
endfacet
facet normal -0.41551642400397015 -0.9095856756693966 -0.0
  outer loop
    vertex 4.3199262035297465 12.485570100150614 0.0
    vertex 4.795129904031251 12.26848780918278 3.0
    vertex 4.3199262035297465 12.485570100150614 3.0
  endloop
endfacet
facet normal -0.1659399491769468 -0.986135859436798 -0.0
  outer loop
    vertex 4.3199262035297465 12.485570100150614 3.0
    vertex 3.8047296452102213 12.57226372343342 0.0
    vertex 4.3199262035297465 12.485570100150614 0.0
  endloop
endfacet
facet normal -0.1659399491769468 -0.986135859436798 -0.0
  outer loop
    vertex 3.8047296452102213 12.57226372343342 0.0
    vertex 4.3199262035297465 12.485570100150614 3.0
    vertex 3.8047296452102213 12.57226372343342 3.0
  endloop
endfacet
facet normal 0.09494505895767087 -0.9954825140501085 0.0
  outer loop
    vertex 3.8047296452102213 12.57226372343342 3.0
    vertex 3.284650023119642 12.5226606518725 0.0
    vertex 3.8047296452102213 12.57226372343342 0.0
  endloop
endfacet
facet normal 0.09494505895767087 -0.9954825140501085 0.0
  outer loop
    vertex 3.284650023119642 12.5226606518725 0.0
    vertex 3.8047296452102213 12.57226372343342 3.0
    vertex 3.284650023119642 12.5226606518725 3.0
  endloop
endfacet
facet normal 0.34935971822847234 -0.9369886804435378 0.0
  outer loop
    vertex 3.284650023119642 12.5226606518725 3.0
    vertex 2.7951299040312527 12.340141252821772 0.0
    vertex 3.284650023119642 12.5226606518725 0.0
  endloop
endfacet
facet normal 0.34935971822847234 -0.9369886804435378 0.0
  outer loop
    vertex 2.7951299040312527 12.340141252821772 0.0
    vertex 3.284650023119642 12.5226606518725 3.0
    vertex 2.7951299040312527 12.340141252821772 3.0
  endloop
endfacet
facet normal 0.5799660900461936 -0.8146406167117684 0.0
  outer loop
    vertex 2.7951299040312527 12.340141252821772 3.0
    vertex 2.369529275090665 12.037143921699002 0.0
    vertex 2.7951299040312527 12.340141252821772 0.0
  endloop
endfacet
facet normal 0.5799660900461936 -0.8146406167117684 0.0
  outer loop
    vertex 2.369529275090665 12.037143921699002 0.0
    vertex 2.7951299040312527 12.340141252821772 3.0
    vertex 2.369529275090665 12.037143921699002 3.0
  endloop
endfacet
facet normal 0.771048731266554 -0.6367761412083823 0.0
  outer loop
    vertex 2.369529275090665 12.037143921699002 0.0
    vertex 2.0368521158218535 11.634317425893412 3.0
    vertex 2.0368521158218535 11.634317425893412 0.0
  endloop
endfacet
facet normal 0.771048731266554 -0.6367761412083823 0.0
  outer loop
    vertex 2.0368521158218535 11.634317425893412 3.0
    vertex 2.369529275090665 12.037143921699002 0.0
    vertex 2.369529275090665 12.037143921699002 3.0
  endloop
endfacet
facet normal 0.9095856756694277 -0.4155164240039028 0.0
  outer loop
    vertex 2.0368521158218535 11.634317425893412 0.0
    vertex 1.8197698248540577 11.1591137253919 3.0
    vertex 1.8197698248540577 11.1591137253919 0.0
  endloop
endfacet
facet normal 0.9095856756694277 -0.4155164240039028 0.0
  outer loop
    vertex 1.8197698248540577 11.1591137253919 3.0
    vertex 2.0368521158218535 11.634317425893412 0.0
    vertex 2.0368521158218535 11.634317425893412 3.0
  endloop
endfacet
facet normal 0.9861358594367895 -0.16593994917699748 0.0
  outer loop
    vertex 1.8197698248540577 11.1591137253919 0.0
    vertex 1.7330762015712287 10.6439171670724 3.0
    vertex 1.7330762015712287 10.6439171670724 0.0
  endloop
endfacet
facet normal 0.9861358594367895 -0.16593994917699748 0.0
  outer loop
    vertex 1.7330762015712287 10.6439171670724 3.0
    vertex 1.8197698248540577 11.1591137253919 0.0
    vertex 1.8197698248540577 11.1591137253919 3.0
  endloop
endfacet
facet normal 0.9954825140501103 0.0949450589576521 0.0
  outer loop
    vertex 1.7330762015712287 10.6439171670724 0.0
    vertex 1.7826792731321413 10.123837544981807 3.0
    vertex 1.7826792731321413 10.123837544981807 0.0
  endloop
endfacet
facet normal 0.9954825140501103 0.0949450589576521 0.0
  outer loop
    vertex 1.7826792731321413 10.123837544981807 3.0
    vertex 1.7330762015712287 10.6439171670724 0.0
    vertex 1.7330762015712287 10.6439171670724 3.0
  endloop
endfacet
facet normal 0.9369886804435338 0.34935971822848416 0.0
  outer loop
    vertex 1.7826792731321413 10.123837544981807 0.0
    vertex 1.965198672182883 9.634317425893398 3.0
    vertex 1.965198672182883 9.634317425893398 0.0
  endloop
endfacet
facet normal 0.9369886804435338 0.34935971822848416 0.0
  outer loop
    vertex 1.965198672182883 9.634317425893398 3.0
    vertex 1.7826792731321413 10.123837544981807 0.0
    vertex 1.7826792731321413 10.123837544981807 3.0
  endloop
endfacet
facet normal 0.8146406167117651 0.5799660900461984 0.0
  outer loop
    vertex 1.965198672182883 9.634317425893398 0.0
    vertex 2.2681960033056665 9.208716796952796 3.0
    vertex 2.2681960033056665 9.208716796952796 0.0
  endloop
endfacet
facet normal 0.8146406167117651 0.5799660900461984 0.0
  outer loop
    vertex 2.2681960033056665 9.208716796952796 3.0
    vertex 1.965198672182883 9.634317425893398 0.0
    vertex 1.965198672182883 9.634317425893398 3.0
  endloop
endfacet
facet normal 0.6367761412083688 0.771048731266565 0.0
  outer loop
    vertex 2.2681960033056665 9.208716796952796 3.0
    vertex 2.671022499111247 8.876039637684007 0.0
    vertex 2.2681960033056665 9.208716796952796 0.0
  endloop
endfacet
facet normal 0.6367761412083688 0.771048731266565 0.0
  outer loop
    vertex 2.671022499111247 8.876039637684007 0.0
    vertex 2.2681960033056665 9.208716796952796 3.0
    vertex 2.671022499111247 8.876039637684007 3.0
  endloop
endfacet
facet normal 0.4155164240039306 0.9095856756694148 0.0
  outer loop
    vertex 2.671022499111247 8.876039637684007 3.0
    vertex 3.1462261996127476 8.658957346716198 0.0
    vertex 2.671022499111247 8.876039637684007 0.0
  endloop
endfacet
facet normal 0.4155164240039306 0.9095856756694148 0.0
  outer loop
    vertex 3.1462261996127476 8.658957346716198 0.0
    vertex 2.671022499111247 8.876039637684007 3.0
    vertex 3.1462261996127476 8.658957346716198 3.0
  endloop
endfacet
facet normal 0.16593994917694257 0.9861358594367986 0.0
  outer loop
    vertex 3.1462261996127476 8.658957346716198 3.0
    vertex 3.6614227579322525 8.572263723433398 0.0
    vertex 3.1462261996127476 8.658957346716198 0.0
  endloop
endfacet
facet normal 0.16593994917694257 0.9861358594367986 0.0
  outer loop
    vertex 3.6614227579322525 8.572263723433398 0.0
    vertex 3.1462261996127476 8.658957346716198 3.0
    vertex 3.6614227579322525 8.572263723433398 3.0
  endloop
endfacet
facet normal -0.09494505895760909 0.9954825140501142 0.0
  outer loop
    vertex 3.6614227579322525 8.572263723433398 3.0
    vertex 4.181502380022864 8.621866794994288 0.0
    vertex 3.6614227579322525 8.572263723433398 0.0
  endloop
endfacet
facet normal -0.09494505895760909 0.9954825140501142 0.0
  outer loop
    vertex 4.181502380022864 8.621866794994288 0.0
    vertex 3.6614227579322525 8.572263723433398 3.0
    vertex 4.181502380022864 8.621866794994288 3.0
  endloop
endfacet
facet normal -0.3493597182284761 0.9369886804435366 0.0
  outer loop
    vertex 4.181502380022864 8.621866794994288 3.0
    vertex 4.6710224991112534 8.804386194045017 0.0
    vertex 4.181502380022864 8.621866794994288 0.0
  endloop
endfacet
facet normal -0.3493597182284761 0.9369886804435366 0.0
  outer loop
    vertex 4.6710224991112534 8.804386194045017 0.0
    vertex 4.181502380022864 8.621866794994288 3.0
    vertex 4.6710224991112534 8.804386194045017 3.0
  endloop
endfacet
facet normal -0.5799660900461946 0.8146406167117677 0.0
  outer loop
    vertex 4.6710224991112534 8.804386194045017 3.0
    vertex 5.09662312805186 9.107383525167803 0.0
    vertex 4.6710224991112534 8.804386194045017 0.0
  endloop
endfacet
facet normal -0.5799660900461946 0.8146406167117677 0.0
  outer loop
    vertex 5.09662312805186 9.107383525167803 0.0
    vertex 4.6710224991112534 8.804386194045017 3.0
    vertex 5.09662312805186 9.107383525167803 3.0
  endloop
endfacet
endsolid bottleOpenerTest
